<svg width="90" height="32" viewBox="0 0 90 32" fill="none" xmlns="http://www.w3.org/2000/svg">
<g clip-path="url(#clip0_14_10)">
<path fill-rule="evenodd" clip-rule="evenodd" d="M53.8249 6.78987C53.7668 7.50047 53.6459 8.20515 53.5465 8.91206C53.3582 10.2526 53.179 11.5946 52.9702 12.9322C52.8319 13.8189 52.5263 14.0802 51.6546 14.1054C51.0396 14.1224 50.4238 14.1091 49.8084 14.1047C49.7386 14.1039 49.669 14.0713 49.5054 14.0292C49.8178 11.3289 50.2467 8.64336 50.6222 5.85277C51.4768 5.85277 52.2612 5.82315 53.0421 5.86239C53.6386 5.89199 53.8751 6.17624 53.8249 6.78987ZM61.0934 4.03703C60.9707 2.09397 60.1129 1.01548 58.2263 0.48401C57.0311 0.147213 55.8031 0.0569082 54.5689 0.0554278C48.6789 0.0472854 42.789 0.0465474 36.8988 0.0465474C36.7119 0.0465474 36.525 0.0879992 36.3114 0.113167C35.8071 3.5285 34.964 6.81578 33.825 10.0246C32.6803 13.2497 31.301 16.3675 29.5629 19.3165C29.5086 19.3024 29.4543 19.2876 29.4 19.2736C30.2909 12.8885 31.1819 6.50341 32.0785 0.0768932C31.7631 0.0628291 31.5445 0.0443253 31.3257 0.0450655C21.4689 0.0532079 11.612 0.0628299 1.75499 0.073933C1.73902 0.073933 1.72024 0.101322 1.70796 0.119087C1.69428 0.139813 1.68652 0.163498 1.66152 0.217534C1.8211 0.385561 1.98638 0.565435 2.15861 0.737904C2.87177 1.45443 3.57451 2.18206 4.30779 2.87786C4.58962 3.14507 4.71126 3.41081 4.61446 3.78832C4.57202 3.95338 4.57919 4.13103 4.55501 4.30202C4.13283 7.27841 3.70548 10.2533 3.28693 13.2305C2.54588 18.5008 1.8089 23.7711 1.07355 29.0421C0.976013 29.7416 0.898737 30.4433 0.806152 31.1917C3.18643 31.1917 5.49098 31.1917 7.87163 31.1917C8.43734 27.1516 8.99957 23.1375 9.57202 19.05C11.8227 19.05 14.0039 19.05 16.2367 19.05C16.5198 17.0078 16.7923 15.0425 17.0792 12.9729C14.8188 12.9729 12.6631 12.9729 10.4184 12.9729C10.7491 10.636 11.0653 8.40279 11.3788 6.1866C12.5042 6.03634 20.0601 6.08741 20.5866 6.2473C20.5717 6.48564 20.5569 6.73065 20.5412 6.9764C20.434 8.64854 20.2892 10.32 20.2268 11.9936C20.0767 16.0285 20.3917 20.0256 21.3233 23.9613C21.9045 26.4166 22.7174 28.7897 23.9922 30.9829C24.187 31.3175 24.4197 31.6306 24.6659 32C25.0127 31.8024 25.314 31.6439 25.6017 31.4648C27.5542 30.2442 29.3326 28.803 30.9697 27.1871C36.9424 21.2936 40.5354 14.1239 42.2861 5.97416C42.5326 4.82683 42.7206 3.66692 42.9443 2.4663C43.5729 2.84899 43.9557 3.27535 43.7448 4.04147C43.6344 4.44266 43.6075 4.8668 43.5495 5.28206C43.1333 8.25845 42.7196 11.2363 42.3033 14.2135C41.9313 16.873 41.5569 19.5326 41.1837 22.1922C40.7762 25.096 40.3681 27.9992 39.9652 30.9037C39.9533 30.9896 39.9964 31.0829 40.0191 31.1998C42.3572 31.1998 44.6658 31.1998 47.0594 31.1998C47.6102 27.3396 48.1583 23.4987 48.7145 19.6007C49.3889 19.6007 50.0006 19.5918 50.612 19.6029C51.3052 19.6163 51.6714 19.9205 51.7553 20.5993C51.8001 20.9627 51.7965 21.3424 51.7475 21.7051C51.4412 23.9761 51.1144 26.2441 50.7974 28.5136C50.6754 29.3863 50.5614 30.2605 50.4366 31.1872C52.8354 31.1872 55.1624 31.1872 57.5361 31.1872C57.5846 30.9193 57.6351 30.6817 57.6696 30.4426C57.9996 28.1501 58.3503 25.8599 58.6454 23.5631C58.8084 22.2943 58.9622 21.0145 58.9667 19.7384C58.9727 18.0233 58.2458 17.1736 56.6076 16.6917C56.4909 16.6569 56.371 16.634 56.2527 16.6058C56.2411 16.5747 56.2296 16.5429 56.2181 16.5118C56.4066 16.463 56.5928 16.4001 56.7842 16.3682C58.3235 16.1121 59.2972 15.2076 59.789 13.7501C59.8836 13.471 59.9946 13.1912 60.0441 12.9026C60.2904 11.471 60.5403 10.0394 60.7466 8.60191C60.964 7.08966 61.1903 5.57593 61.0934 4.03703Z" fill="white"/>
<path fill-rule="evenodd" clip-rule="evenodd" d="M82.518 19.6681C81.3237 19.6681 80.1812 19.6681 78.9544 19.6681C80.1509 15.1698 81.3371 10.7078 82.5232 6.24583C82.5927 6.24805 82.6622 6.24953 82.7317 6.25101C82.6607 10.7056 82.5898 15.1595 82.518 19.6681ZM74.3696 0.196825C75.1009 0.929634 75.7864 1.66836 76.5318 2.3427C76.9755 2.74389 77.0502 3.11326 76.8853 3.68914C74.377 12.4754 71.893 21.2699 69.4053 30.0629C69.307 30.4108 69.2286 30.7653 69.1251 31.1806C71.5173 31.1806 73.8423 31.1806 76.222 31.1806C76.6857 29.4411 77.1471 27.7141 77.6011 26.0109C79.1496 26.0109 80.6175 26.0109 82.1194 26.0109C82.1194 27.7482 82.1194 29.4403 82.1194 31.1821C84.4503 31.1821 86.7553 31.1821 89.1128 31.1821C89.3029 29.367 89.1276 0.683142 88.9302 0.0843114C87.1029 -0.0726133 74.9419 0.00362983 74.3696 0.196825Z" fill="white"/>
<path fill-rule="evenodd" clip-rule="evenodd" d="M60.9396 0.0909424C61.1519 0.330771 61.285 0.495837 61.4336 0.64536C62.145 1.36262 62.8446 2.09395 63.5818 2.78382C63.942 3.12136 64.0529 3.44779 63.9701 3.94744C63.7157 5.47745 63.5249 7.01783 63.3119 8.55451C62.8483 11.8966 62.389 15.2394 61.9217 18.5807C61.4026 22.2877 60.876 25.9939 60.3554 29.7009C60.2874 30.182 60.2386 30.6654 60.1758 31.1931C62.5577 31.1931 64.8634 31.1931 67.2416 31.1931C68.6977 20.7806 70.1419 10.4539 71.5913 0.0909424C68.0084 0.0909424 64.5299 0.0909424 60.9396 0.0909424Z" fill="white"/>
</g>
<defs>
<clipPath id="clip0_14_10">
<rect width="90" height="32" fill="white"/>
</clipPath>
</defs>
</svg>
